<svg xmlns="http://www.w3.org/2000/svg" viewBox="0 0 1200 600" role="img" aria-label="Clientes buscando serviços">
  <defs>
    <linearGradient id="bg" x1="0%" y1="0%" x2="100%" y2="100%">
      <stop offset="0%" stop-color="#0047AB"/>
      <stop offset="50%" stop-color="#0066FF"/>
      <stop offset="100%" stop-color="#00C9A7"/>
    </linearGradient>
    <linearGradient id="phone" x1="0%" y1="0%" x2="0%" y2="100%">
      <stop offset="0%" stop-color="#2D3748"/>
      <stop offset="100%" stop-color="#1A202C"/>
    </linearGradient>
    <filter id="shadow" x="-20%" y="-20%" width="140%" height="140%">
      <feDropShadow dx="0" dy="12" stdDeviation="16" flood-color="#000" flood-opacity="0.3"/>
    </filter>
  </defs>
  <rect width="1200" height="600" fill="url(#bg)"/>
  <circle cx="900" cy="500" r="150" fill="#FFFFFF" fill-opacity="0.06"/>
  <circle cx="750" cy="100" r="60" fill="#FFFFFF" fill-opacity="0.1"/>
  <!-- Person -->
  <g transform="translate(620, 140)">
    <ellipse cx="80" cy="380" rx="90" ry="20" fill="#000" fill-opacity="0.2"/>
    <circle cx="80" cy="120" r="55" fill="#FFD4C2"/>
    <path d="M30 200 Q80 170 130 200 L140 340 Q80 360 20 340 Z" fill="#FFFFFF" fill-opacity="0.9"/>
    <circle cx="80" cy="115" r="52" fill="none" stroke="#FFFFFF" stroke-width="4" opacity="0.5"/>
  </g>
  <!-- Phone with search -->
  <g transform="translate(780, 100)" filter="url(#shadow)">
    <rect x="0" y="0" width="200" height="380" rx="28" fill="url(#phone)"/>
    <rect x="12" y="40" width="176" height="300" rx="12" fill="#FFFFFF"/>
    <rect x="70" y="16" width="60" height="8" rx="4" fill="#4A5568"/>
    <!-- Search bar -->
    <rect x="24" y="56" width="152" height="36" rx="18" fill="#EDF2F7"/>
    <circle cx="44" cy="74" r="10" fill="none" stroke="#0066FF" stroke-width="3"/>
    <line x1="51" y1="81" x2="58" y2="88" stroke="#0066FF" stroke-width="3" stroke-linecap="round"/>
    <text x="100" y="78" text-anchor="middle" font-family="system-ui,sans-serif" font-size="11" fill="#718096">eletricista SP</text>
    <!-- Service results -->
    <rect x="24" y="108" width="152" height="56" rx="10" fill="#FFF5F0" stroke="#FF6B35" stroke-width="2"/>
    <text x="40" y="132" font-size="22">ˇ</text>
    <text x="72" y="128" font-family="system-ui,sans-serif" font-size="12" font-weight="700" fill="#1A1D29">Eletricista</text>
    <text x="72" y="148" font-family="system-ui,sans-serif" font-size="10" fill="#718096">4.9  · 2 km</text>
    <rect x="24" y="172" width="152" height="56" rx="10" fill="#F0FFF4" stroke="#00C9A7" stroke-width="2"/>
    <text x="40" y="196" font-size="22">='</text>
    <text x="72" y="192" font-family="system-ui,sans-serif" font-size="12" font-weight="700" fill="#1A1D29">Encanador</text>
    <text x="72" y="212" font-family="system-ui,sans-serif" font-size="10" fill="#718096">4.8  · 3 km</text>
    <rect x="24" y="236" width="152" height="56" rx="10" fill="#FAF5FF" stroke="#7C3AED" stroke-width="2"/>
    <text x="40" y="260" font-size="22"><¨</text>
    <text x="72" y="256" font-family="system-ui,sans-serif" font-size="12" font-weight="700" fill="#1A1D29">Pintor</text>
    <text x="72" y="276" font-family="system-ui,sans-serif" font-size="10" fill="#718096">5.0  · 1 km</text>
    <rect x="40" y="310" width="120" height="32" rx="16" fill="#0066FF"/>
    <text x="100" y="331" text-anchor="middle" font-family="system-ui,sans-serif" font-size="11" font-weight="700" fill="#FFFFFF">Contratar</text>
  </g>
  <!-- Radar pulse -->
  <circle cx="880" cy="200" r="40" fill="none" stroke="#FFFFFF" stroke-width="2" opacity="0.4"/>
  <circle cx="880" cy="200" r="70" fill="none" stroke="#FFFFFF" stroke-width="1.5" opacity="0.25"/>
  <circle cx="880" cy="200" r="100" fill="none" stroke="#FFFFFF" stroke-width="1" opacity="0.15"/>
  <text x="880" y="208" text-anchor="middle" font-size="28">=á</text>
</svg>
