<svg xmlns="http://www.w3.org/2000/svg" viewBox="0 0 1200 600" role="img" aria-label="Produtos sendo vendidos">
  <defs>
    <linearGradient id="bg" x1="100%" y1="0%" x2="0%" y2="100%">
      <stop offset="0%" stop-color="#0066FF"/>
      <stop offset="50%" stop-color="#7C3AED"/>
      <stop offset="100%" stop-color="#00C9A7"/>
    </linearGradient>
    <linearGradient id="shelf" x1="0%" y1="0%" x2="0%" y2="100%">
      <stop offset="0%" stop-color="#FFFFFF" stop-opacity="0.9"/>
      <stop offset="100%" stop-color="#FFFFFF" stop-opacity="0.7"/>
    </linearGradient>
    <filter id="shadow" x="-20%" y="-20%" width="140%" height="140%">
      <feDropShadow dx="0" dy="8" stdDeviation="10" flood-color="#000" flood-opacity="0.2"/>
    </filter>
  </defs>
  <rect width="1200" height="600" fill="url(#bg)"/>
  <circle cx="950" cy="150" r="100" fill="#FFFFFF" fill-opacity="0.08"/>
  <!-- Shelf -->
  <g transform="translate(640, 120)" filter="url(#shadow)">
    <rect x="0" y="0" width="480" height="360" rx="24" fill="url(#shelf)"/>
    <line x1="20" y1="120" x2="460" y2="120" stroke="#E2E8F0" stroke-width="3"/>
    <line x1="20" y1="240" x2="460" y2="240" stroke="#E2E8F0" stroke-width="3"/>
    <!-- TV -->
    <rect x="40" y="40" width="120" height="70" rx="8" fill="#1A1D29"/>
    <rect x="48" y="48" width="104" height="54" rx="4" fill="#0066FF"/>
    <rect x="88" y="110" width="24" height="8" rx="2" fill="#718096"/>
    <rect x="50" y="28" width="48" height="18" rx="9" fill="#FF6B35"/>
    <text x="74" y="41" text-anchor="middle" font-family="system-ui,sans-serif" font-size="9" font-weight="700" fill="#FFFFFF">-30%</text>
    <!-- Fridge -->
    <rect x="200" y="30" width="80" height="85" rx="6" fill="#E2E8F0"/>
    <line x1="200" y1="72" x2="280" y2="72" stroke="#CBD5E0" stroke-width="2"/>
    <rect x="258" y="50" width="6" height="20" rx="2" fill="#A0AEC0"/>
    <!-- Phone -->
    <rect x="320" y="50" width="50" height="90" rx="8" fill="#1A1D29"/>
    <rect x="326" y="58" width="38" height="70" rx="4" fill="#00C9A7"/>
    <!-- Bottom row -->
    <rect x="50" y="160" width="90" height="70" rx="8" fill="#FF6B35" opacity="0.9"/>
    <text x="95" y="205" text-anchor="middle" font-size="32"><s</text>
    <rect x="170" y="160" width="90" height="70" rx="8" fill="#0066FF" opacity="0.85"/>
    <text x="215" y="205" text-anchor="middle" font-size="32">=ú</text>
    <rect x="290" y="160" width="90" height="70" rx="8" fill="#7C3AED" opacity="0.85"/>
    <text x="335" y="205" text-anchor="middle" font-size="32">=
</text>
    <rect x="400" y="160" width="50" height="70" rx="8" fill="#00C9A7" opacity="0.85"/>
    <text x="425" y="205" text-anchor="middle" font-size="28">D</text>
    <!-- Sold badges -->
    <rect x="380" y="260" width="80" height="28" rx="14" fill="#00C9A7"/>
    <text x="420" y="279" text-anchor="middle" font-family="system-ui,sans-serif" font-size="11" font-weight="700" fill="#FFFFFF">VENDIDO</text>
    <rect x="60" y="260" width="80" height="28" rx="14" fill="#00C9A7"/>
    <text x="100" y="279" text-anchor="middle" font-family="system-ui,sans-serif" font-size="11" font-weight="700" fill="#FFFFFF">VENDIDO</text>
  </g>
  <!-- Shopping cart -->
  <g transform="translate(720, 380)" filter="url(#shadow)">
    <circle cx="60" cy="60" r="55" fill="#FFFFFF" fill-opacity="0.95"/>
    <text x="60" y="72" text-anchor="middle" font-size="40">=Ň</text>
    <circle cx="95" cy="30" r="16" fill="#FF6B35"/>
    <text x="95" y="35" text-anchor="middle" font-family="system-ui,sans-serif" font-size="12" font-weight="800" fill="#FFFFFF">5</text>
  </g>
  <!-- Price tags floating -->
  <g transform="translate(1050, 280)">
    <rect x="0" y="0" width="90" height="36" rx="8" fill="#FFFFFF" fill-opacity="0.9" transform="rotate(12)"/>
    <text x="45" y="24" text-anchor="middle" font-family="system-ui,sans-serif" font-size="13" font-weight="800" fill="#FF6B35" transform="rotate(12)">R$ 899</text>
  </g>
  <g transform="translate(1080, 380)">
    <rect x="0" y="0" width="80" height="32" rx="8" fill="#FFFFFF" fill-opacity="0.9" transform="rotate(-8)"/>
    <text x="40" y="22" text-anchor="middle" font-family="system-ui,sans-serif" font-size="12" font-weight="800" fill="#0066FF" transform="rotate(-8)">R$ 1.299</text>
  </g>
  <text x="650" y="520" font-size="56" opacity="0.2">=ć</text>
</svg>
