<svg xmlns="http://www.w3.org/2000/svg" viewBox="0 0 1200 600" role="img" aria-label="Radar de oportunidades Trampolim">
  <defs>
    <linearGradient id="bg" x1="0%" y1="0%" x2="100%" y2="100%">
      <stop offset="0%" stop-color="#0047AB"/>
      <stop offset="40%" stop-color="#0066FF"/>
      <stop offset="100%" stop-color="#00E5B8"/>
    </linearGradient>
    <filter id="glow">
      <feGaussianBlur stdDeviation="4" result="blur"/>
      <feMerge><feMergeNode in="blur"/><feMergeNode in="SourceGraphic"/></feMerge>
    </filter>
  </defs>
  <rect width="1200" height="600" fill="url(#bg)"/>
  <!-- Radar circles -->
  <g transform="translate(880, 300)">
    <circle cx="0" cy="0" r="180" fill="none" stroke="#FFFFFF" stroke-width="1" opacity="0.15"/>
    <circle cx="0" cy="0" r="130" fill="none" stroke="#FFFFFF" stroke-width="1.5" opacity="0.25"/>
    <circle cx="0" cy="0" r="80" fill="none" stroke="#FFFFFF" stroke-width="2" opacity="0.35"/>
    <circle cx="0" cy="0" r="30" fill="#00C9A7" fill-opacity="0.4"/>
    <line x1="0" y1="0" x2="160" y2="-100" stroke="#FF6B35" stroke-width="3" opacity="0.8" filter="url(#glow)"/>
    <circle cx="120" cy="-80" r="10" fill="#FF6B35"/>
    <circle cx="-60" cy="100" r="8" fill="#00C9A7"/>
    <circle cx="90" cy="60" r="7" fill="#FFFFFF"/>
    <circle cx="-100" cy="-40" r="9" fill="#FFB347"/>
    <text x="0" y="8" text-anchor="middle" font-size="24">=á</text>
  </g>
  <!-- Platform pills -->
  <g transform="translate(660, 100)">
    <rect x="0" y="0" width="110" height="40" rx="20" fill="#FFE600" fill-opacity="0.95"/>
    <text x="55" y="26" text-anchor="middle" font-family="system-ui,sans-serif" font-size="12" font-weight="700" fill="#1A1D29">Mercado Livre</text>
    <rect x="0" y="56" width="90" height="40" rx="20" fill="#FF6B35" fill-opacity="0.95"/>
    <text x="45" y="82" text-anchor="middle" font-family="system-ui,sans-serif" font-size="12" font-weight="700" fill="#FFFFFF">OLX</text>
    <rect x="0" y="112" width="80" height="40" rx="20" fill="#1877F2" fill-opacity="0.95"/>
    <text x="40" y="138" text-anchor="middle" font-family="system-ui,sans-serif" font-size="12" font-weight="700" fill="#FFFFFF">Meta</text>
    <rect x="0" y="168" width="85" height="40" rx="20" fill="#6001D2" fill-opacity="0.95"/>
    <text x="42" y="194" text-anchor="middle" font-family="system-ui,sans-serif" font-size="12" font-weight="700" fill="#FFFFFF">Yahoo</text>
    <rect x="0" y="224" width="100" height="40" rx="20" fill="#FFFFFF" fill-opacity="0.95"/>
    <text x="50" y="250" text-anchor="middle" font-family="system-ui,sans-serif" font-size="12" font-weight="700" fill="#FF6B35">=€ Trampolim</text>
  </g>
  <!-- Opportunity cards -->
  <g transform="translate(660, 380)">
    <rect x="0" y="0" width="200" height="56" rx="12" fill="#FFFFFF" fill-opacity="0.15"/>
    <text x="16" y="24" font-family="system-ui,sans-serif" font-size="11" fill="#FFFFFF" opacity="0.8">=Ľ Serviço</text>
    <text x="16" y="44" font-family="system-ui,sans-serif" font-size="13" font-weight="700" fill="#FFFFFF">Pintor · Campinas</text>
    <rect x="220" y="0" width="200" height="56" rx="12" fill="#FFFFFF" fill-opacity="0.15"/>
    <text x="236" y="24" font-family="system-ui,sans-serif" font-size="11" fill="#FFFFFF" opacity="0.8">=ć Produto</text>
    <text x="236" y="44" font-family="system-ui,sans-serif" font-size="13" font-weight="700" fill="#FFFFFF">TV 55" · R$ 1.899</text>
  </g>
  <text x="620" y="540" font-size="64" opacity="0.15">=€</text>
</svg>
